<?xml version="1.0" encoding="UTF-8"?>
<svg xmlns="http://www.w3.org/2000/svg" xmlns:xlink="http://www.w3.org/1999/xlink" width="595pt" height="842pt" viewBox="0 0 595 842" version="1.1">
<g id="surface1">
<rect x="0" y="0" width="595" height="842" style="fill:rgb(0%,65.429688%,34.910583%);fill-opacity:1;stroke:none;"/>
<path style=" stroke:none;fill-rule:evenodd;fill:rgb(8.227539%,8.616638%,8.616638%);fill-opacity:1;" d="M 6.351563 667.765625 L 15.265625 89.613281 L 104.394531 -23.128906 L 606.496094 2.886719 L 612.441406 711.128906 L 131.136719 728.472656 Z M 6.351563 667.765625 "/>
<path style=" stroke:none;fill-rule:evenodd;fill:rgb(98.826599%,83.984375%,0%);fill-opacity:1;" d="M 25.328125 262.933594 L 25.503906 301.375 L 110.214844 226.226563 L 594.992188 223.695313 L 594.992188 196.859375 L 102.667969 196.859375 Z M 25.328125 262.933594 "/>
<path style=" stroke:none;fill-rule:evenodd;fill:rgb(98.826599%,83.984375%,0%);fill-opacity:1;" d="M 23.441406 607.980469 L 23.332031 639.761719 L 115.683594 697.914063 L 172.460938 697.910156 L 174.347656 672.015625 L 125.304688 672.21875 Z M 23.441406 607.980469 "/>
<path style=" stroke:none;fill-rule:evenodd;fill:rgb(98.826599%,83.984375%,0%);fill-opacity:1;" d="M 319.226563 662.695313 L 319.226563 690.570313 L 598.765625 684.175781 L 599.554688 656.765625 Z M 319.226563 662.695313 "/>
<path style=" stroke:none;fill-rule:evenodd;fill:rgb(98.826599%,83.984375%,0%);fill-opacity:1;" d="M 120.585938 527.222656 C 133.609375 527.222656 144.167969 545.714844 144.167969 568.519531 C 144.167969 591.328125 133.609375 609.816406 120.585938 609.816406 C 107.566406 609.816406 97.007813 591.328125 97.007813 568.519531 C 97.007813 545.710938 107.566406 527.222656 120.585938 527.222656 Z M 120.585938 527.222656 "/>
<path style=" stroke:none;fill-rule:evenodd;fill:rgb(8.227539%,8.616638%,8.616638%);fill-opacity:1;" d="M 120.589844 551.085938 C 126.085938 551.085938 130.542969 558.890625 130.542969 568.519531 C 130.542969 578.148438 126.085938 585.957031 120.589844 585.957031 C 115.089844 585.957031 110.632813 578.148438 110.632813 568.519531 C 110.632813 558.890625 115.089844 551.085938 120.589844 551.085938 Z M 120.589844 551.085938 "/>
<path style=" stroke:none;fill-rule:evenodd;fill:rgb(98.826599%,83.984375%,0%);fill-opacity:1;" d="M 192.269531 248.25 L 305.441406 248.25 C 313.226563 248.25 319.59375 253.699219 319.59375 260.363281 L 319.59375 476.566406 C 319.59375 482.753906 314.101563 487.882813 307.09375 488.59375 L 307.09375 585.800781 C 307.09375 593.34375 300.757813 599.507813 293.007813 599.507813 L 208.503906 599.507813 C 200.75 599.507813 194.417969 593.34375 194.417969 585.800781 L 194.417969 488.683594 L 192.269531 488.683594 C 184.484375 488.683594 178.121094 483.234375 178.121094 476.566406 L 178.121094 260.363281 C 178.121094 253.699219 184.484375 248.25 192.269531 248.25 Z M 192.269531 248.25 "/>
<path style=" stroke:none;fill-rule:evenodd;fill:rgb(98.826599%,83.984375%,0%);fill-opacity:1;" d="M 392.804688 254.984375 L 571.457031 254.984375 C 575.066406 254.984375 578.007813 257.785156 578.007813 261.214844 L 578.007813 290.34375 C 578.007813 293.773438 575.066406 296.574219 571.457031 296.574219 L 392.804688 296.574219 C 389.195313 296.574219 386.238281 293.773438 386.238281 290.34375 L 386.238281 261.214844 C 386.238281 257.785156 389.195313 254.984375 392.804688 254.984375 Z M 392.804688 254.984375 "/>
<path style=" stroke:none;fill-rule:evenodd;fill:rgb(98.826599%,83.984375%,0%);fill-opacity:1;" d="M 298.179688 715.367188 L 328.785156 715.367188 L 328.785156 696.847656 L 298.179688 696.847656 Z M 298.179688 715.367188 "/>
<path style=" stroke:none;fill-rule:evenodd;fill:rgb(98.826599%,83.984375%,0%);fill-opacity:1;" d="M 173.253906 715.367188 L 203.859375 715.367188 L 203.859375 696.847656 L 173.253906 696.847656 Z M 173.253906 715.367188 "/>
<path style=" stroke:none;fill-rule:evenodd;fill:rgb(98.826599%,83.984375%,0%);fill-opacity:1;" d="M 251.023438 715.367188 L 298.179688 715.367188 L 298.179688 696.847656 L 251.023438 696.847656 Z M 251.023438 715.367188 "/>
<path style=" stroke:none;fill-rule:evenodd;fill:rgb(98.826599%,83.984375%,0%);fill-opacity:1;" d="M 203.867188 715.367188 L 251.023438 715.367188 L 251.023438 696.847656 L 203.867188 696.847656 Z M 203.867188 715.367188 "/>
<path style=" stroke:none;fill-rule:evenodd;fill:rgb(98.826599%,83.984375%,0%);fill-opacity:1;" d="M 177.390625 692.828125 L 224.546875 692.828125 L 224.546875 671.089844 L 177.390625 671.089844 Z M 177.390625 692.828125 "/>
<path style=" stroke:none;fill-rule:evenodd;fill:rgb(98.826599%,83.984375%,0%);fill-opacity:1;" d="M 224.554688 692.828125 L 271.707031 692.828125 L 271.707031 671.089844 L 224.554688 671.089844 Z M 224.554688 692.828125 "/>
<path style=" stroke:none;fill-rule:evenodd;fill:rgb(98.826599%,83.984375%,0%);fill-opacity:1;" d="M 271.707031 692.828125 L 318.863281 692.828125 L 318.863281 671.089844 L 271.707031 671.089844 Z M 271.707031 692.828125 "/>
<path style=" stroke:none;fill-rule:evenodd;fill:rgb(98.826599%,83.984375%,0%);fill-opacity:1;" d="M 248.539063 667.875 L 295.695313 667.875 L 295.695313 646.136719 L 248.539063 646.136719 Z M 248.539063 667.875 "/>
<path style=" stroke:none;fill-rule:evenodd;fill:rgb(98.826599%,83.984375%,0%);fill-opacity:1;" d="M 221.238281 642.921875 L 268.394531 642.921875 L 268.394531 621.179688 L 221.238281 621.179688 Z M 221.238281 642.921875 "/>
<path style=" stroke:none;fill-rule:evenodd;fill:rgb(98.826599%,83.984375%,0%);fill-opacity:1;" d="M 201.386719 667.875 L 248.539063 667.875 L 248.539063 646.136719 L 201.386719 646.136719 Z M 201.386719 667.875 "/>
<path style=" stroke:none;fill-rule:evenodd;fill:rgb(8.227539%,8.616638%,8.616638%);fill-opacity:1;" d="M 189.382813 453.984375 L 305.4375 453.984375 L 305.4375 469.769531 L 290.292969 469.769531 L 290.292969 583.710938 L 252.957031 583.710938 L 252.957031 469.769531 L 244.882813 469.769531 L 244.882813 583.710938 L 207.546875 583.710938 L 207.546875 469.769531 L 189.382813 469.769531 Z M 213.097656 483.578125 L 238.328125 483.578125 L 238.328125 577.296875 L 213.097656 577.296875 Z M 258.511719 483.578125 L 283.738281 483.578125 L 283.738281 577.296875 L 258.511719 577.296875 Z M 258.511719 483.578125 "/>
<path style=" stroke:none;fill-rule:evenodd;fill:rgb(8.227539%,8.616638%,8.616638%);fill-opacity:1;" d="M 249.554688 507.003906 C 257.449219 507.003906 263.847656 518.210938 263.847656 532.039063 C 263.847656 545.863281 257.449219 557.074219 249.554688 557.074219 C 241.660156 557.074219 235.261719 545.863281 235.261719 532.039063 C 235.261719 518.210938 241.660156 507.003906 249.554688 507.003906 Z M 249.554688 507.003906 "/>
<path style=" stroke:none;fill-rule:evenodd;fill:rgb(8.227539%,8.616638%,8.616638%);fill-opacity:1;" d="M 92.667969 829.320313 L 92.667969 859.25 C 92.667969 865.085938 93.402344 868.753906 94.917969 870.25 C 96.375 871.769531 99.015625 872.988281 102.773438 873.886719 C 106.59375 874.78125 113.496094 875.246094 123.597656 875.246094 L 123.597656 878.179688 L 10.269531 878.179688 L 10.269531 875.246094 C 20.59375 875.246094 27.558594 874.78125 31.265625 873.832031 C 34.914063 872.910156 37.488281 871.714844 39.003906 870.21875 C 40.464844 868.726563 41.199219 865.085938 41.199219 859.25 L 41.199219 789.230469 C 41.199219 783.394531 40.464844 779.726563 39.003906 778.203125 C 37.488281 776.683594 34.914063 775.488281 31.148438 774.59375 C 27.441406 773.667969 20.484375 773.234375 10.269531 773.234375 L 10.269531 770.273438 L 107.488281 770.273438 C 139.484375 770.273438 162.445313 773.042969 176.367188 778.558594 C 190.289063 784.070313 197.246094 790.96875 197.246094 799.25 C 197.246094 806.261719 192.757813 812.234375 183.773438 817.230469 C 174.792969 822.203125 162.390625 825.597656 146.617188 827.417969 C 136.007813 828.695313 117.988281 829.320313 92.667969 829.320313 Z M 92.667969 776.492188 L 92.667969 823.125 C 96.316406 823.234375 99.015625 823.289063 100.925781 823.289063 C 114.28125 823.289063 124.550781 821.359375 131.792969 817.503906 C 139.039063 813.671875 142.6875 807.699219 142.6875 799.632813 C 142.6875 791.621094 139.039063 785.78125 131.792969 782.0625 C 124.550781 778.339844 113.777344 776.492188 99.410156 776.492188 Z M 298.398438 829.320313 L 298.398438 859.25 C 298.398438 865.085938 299.125 868.753906 300.640625 870.25 C 302.105469 871.769531 304.742188 872.988281 308.5 873.886719 C 312.320313 874.78125 319.222656 875.246094 329.328125 875.246094 L 329.328125 878.179688 L 215.992188 878.179688 L 215.992188 875.246094 C 226.320313 875.246094 233.28125 874.78125 236.988281 873.832031 C 240.636719 872.910156 243.214844 871.714844 244.730469 870.21875 C 246.195313 868.726563 246.921875 865.085938 246.921875 859.25 L 246.921875 789.230469 C 246.921875 783.394531 246.195313 779.726563 244.730469 778.203125 C 243.214844 776.683594 240.636719 775.488281 236.875 774.59375 C 233.167969 773.667969 226.214844 773.234375 215.992188 773.234375 L 215.992188 770.273438 L 313.214844 770.273438 C 345.214844 770.273438 368.171875 773.042969 382.089844 778.558594 C 396.019531 784.070313 402.972656 790.96875 402.972656 799.25 C 402.972656 806.261719 398.484375 812.234375 389.5 817.230469 C 380.519531 822.203125 368.117188 825.597656 352.347656 827.417969 C 341.734375 828.695313 323.71875 829.320313 298.398438 829.320313 Z M 298.398438 776.492188 L 298.398438 823.125 C 302.042969 823.234375 304.742188 823.289063 306.652344 823.289063 C 320.011719 823.289063 330.28125 821.359375 337.523438 817.503906 C 344.765625 813.671875 348.414063 807.699219 348.414063 799.632813 C 348.414063 791.621094 344.765625 785.78125 337.523438 782.0625 C 330.28125 778.339844 319.5 776.492188 305.136719 776.492188 Z M 504.125 829.320313 L 504.125 859.25 C 504.125 865.085938 504.855469 868.753906 506.371094 870.25 C 507.832031 871.769531 510.46875 872.988281 514.226563 873.886719 C 518.050781 874.78125 524.953125 875.246094 535.050781 875.246094 L 535.050781 878.179688 L 421.722656 878.179688 L 421.722656 875.246094 C 432.046875 875.246094 439.011719 874.78125 442.71875 873.832031 C 446.363281 872.910156 448.945313 871.714844 450.460938 870.21875 C 451.921875 868.726563 452.652344 865.085938 452.652344 859.25 L 452.652344 789.230469 C 452.652344 783.394531 451.921875 779.726563 450.460938 778.203125 C 448.945313 776.683594 446.363281 775.488281 442.605469 774.59375 C 438.898438 773.667969 431.9375 773.234375 421.722656 773.234375 L 421.722656 770.273438 L 518.941406 770.273438 C 550.941406 770.273438 573.898438 773.042969 587.816406 778.558594 C 601.742188 784.070313 608.695313 790.96875 608.695313 799.25 C 608.695313 806.261719 604.214844 812.234375 595.226563 817.230469 C 586.25 822.203125 573.84375 825.597656 558.074219 827.417969 C 547.464844 828.695313 529.441406 829.320313 504.125 829.320313 Z M 504.125 776.492188 L 504.125 823.125 C 507.769531 823.234375 510.46875 823.289063 512.378906 823.289063 C 525.734375 823.289063 536.007813 821.359375 543.246094 817.503906 C 550.496094 813.671875 554.144531 807.699219 554.144531 799.632813 C 554.144531 791.621094 550.496094 785.78125 543.246094 782.0625 C 536.007813 778.339844 525.226563 776.492188 510.863281 776.492188 Z M 504.125 776.492188 "/>
</g>
</svg>
